<svg width="400" height="400" xmlns="http://www.w3.org/2000/svg">
  <defs>
    <pattern id="grid" width="40" height="40" patternUnits="userSpaceOnUse">
      <path d="M 40 0 L 0 0 0 40" fill="none" stroke="gray" stroke-opacity="0.3" stroke-width="0.5"/>
    </pattern>
    <pattern id="crosses" width="40" height="40" patternUnits="userSpaceOnUse">
      <path d="M 40 0 L 40 40 M 0 40 L 40 40 M 0 0 L 0 40 M 0 0 L 40 0" fill="none" stroke="gray" stroke-opacity="0.3" stroke-width="0.5"/>
      <path d="M -5 -5 L 5 5 M -5 5 L 5 -5" stroke="gray" stroke-width="2"/>
      <path d="M 35 -5 L 45 5 M 35 5 L 45 -5" stroke="gray" stroke-width="2"/>
      <path d="M -5 35 L 5 45 M -5 45 L 5 35" stroke="gray" stroke-width="2"/>
      <path d="M 35 35 L 45 45 M 35 45 L 45 35" stroke="gray" stroke-width="2"/>
    </pattern>
  </defs>
  <rect width="100%" height="100%" fill="url(#grid)" />
  <rect width="100%" height="100%" fill="url(#crosses)" />
</svg>
